<svg xmlns="http://www.w3.org/2000/svg" viewBox="0 0 1200 700" role="img" aria-label="High Altitude Platform">
  <defs>
    <linearGradient id="bg" x1="0" x2="1" y1="0" y2="1"><stop offset="0" stop-color="#071109"/><stop offset=".52" stop-color="#17321f"/><stop offset="1" stop-color="#0a1710"/></linearGradient>
    <radialGradient id="glow" cx="55%" cy="42%" r="55%"><stop offset="0" stop-color="#ff9f1c" stop-opacity=".26"/><stop offset=".55" stop-color="#6f8c4f" stop-opacity=".10"/><stop offset="1" stop-color="#061009" stop-opacity="0"/></radialGradient>
    <pattern id="grid" width="44" height="44" patternUnits="userSpaceOnUse"><path d="M44 0H0v44" fill="none" stroke="#ffffff" stroke-opacity=".07" stroke-width="1"/></pattern>
    <filter id="soft"><feGaussianBlur stdDeviation="6"/></filter>
  </defs>
  <rect width="1200" height="700" fill="url(#bg)"/>
  <rect width="1200" height="700" fill="url(#grid)"/>
  <circle cx="865" cy="190" r="260" fill="url(#glow)"/>
  <path d="M0 560 C190 490 310 622 500 542 C690 462 840 560 1200 460 L1200 700 L0 700Z" fill="#203a24" opacity=".62"/>
  <path d="M0 604 C190 532 350 656 548 584 C760 508 900 596 1200 520 L1200 700 L0 700Z" fill="#0f2116" opacity=".9"/>
  <g stroke="#ffffff" stroke-opacity=".18" fill="none"><circle cx="950" cy="180" r="68"/><circle cx="950" cy="180" r="122"/><path d="M950 58v244M828 180h244"/></g>
  <g fill="none" stroke="#ff9f1c" stroke-linecap="round" stroke-linejoin="round" stroke-width="14">
<path d="M262 330c70-118 312-120 386 0c-84 68-302 68-386 0z"/>
<path d="M330 350l28 58h188l28-58"/>
<path d="M452 408v82"/>
<path d="M388 490h130"/>
<path d="M705 288h160M748 236l96 104M846 236l-98 104" stroke-opacity=".62"/>
<path d="M248 234c126-54 286-54 412 0" stroke-opacity=".5"/>
</g>
  <text x="70" y="92" font-family="Rajdhani,Arial,sans-serif" font-size="34" font-weight="700" fill="#f7f8ef" letter-spacing="2">HIGH ALTITUDE PLATFORM</text>
  <text x="70" y="132" font-family="monospace" font-size="18" fill="#ff9f1c" letter-spacing="4">INDIGENOUS DEFENCE SYSTEMS</text>
</svg>